<svg width="44" height="44" viewBox="0 0 44 44" fill="none" xmlns="http://www.w3.org/2000/svg">
<path d="M33.4831 32.4142L26.7034 32.9001L26.6576 32.9028C24.4407 33.0907 22.2625 33.5964 20.1896 34.4043L15.8271 36.0488C14.9027 36.3975 13.9141 36.5429 12.9284 36.4753C11.9427 36.4078 10.9832 36.1287 10.115 35.6571C9.24681 35.1855 8.49038 34.5325 7.89713 33.7425C7.30387 32.9524 6.88772 32.0439 6.67698 31.0787L4.28448 20.1208C4.0918 19.238 4.07488 18.3259 4.23471 17.4366C4.39453 16.5473 4.72796 15.6981 5.21596 14.9377C5.70396 14.1772 6.33697 13.5203 7.07884 13.0045C7.82071 12.4886 8.65692 12.124 9.53973 11.9313L29.0876 7.66424C30.8704 7.27508 32.7347 7.61002 34.2705 8.59539C35.8064 9.58076 36.8879 11.1358 37.2771 12.9186L39.7146 24.0836C39.9249 25.0476 39.9254 26.0455 39.7162 27.0097C39.5069 27.974 39.0927 28.8819 38.5016 29.672C37.9106 30.462 37.1565 31.1157 36.2906 31.5887C35.4247 32.0617 34.4672 32.3429 33.4831 32.4133V32.4142Z" stroke="#FF5E5B" stroke-width="0.916667" stroke-linecap="round" stroke-linejoin="round"/>
<path d="M17.567 17.3727L19.69 27.0985L28.4836 20.6883L17.567 17.3727Z" stroke="#FF5E5B" stroke-width="0.916667" stroke-linecap="round" stroke-linejoin="round"/>
</svg>
